<svg id="Calque_1" data-name="Calque 1" xmlns="http://www.w3.org/2000/svg" viewBox="0 0 357.22 207.83"><defs><style>.cls-1{fill:#466a86;}.cls-2{fill:#404040;}.cls-3{fill:#fff;}</style></defs><title>sirius-logo</title><polygon class="cls-1" points="75.27 0 97.67 106.26 132.04 207.83 109.88 102.69 75.27 0"/><polygon class="cls-1" points="0 132.31 106.26 109.91 207.83 75.53 102.69 97.69 0 132.31"/><polygon class="cls-1" points="60.34 79.32 102.84 107.03 147.76 129.23 105.7 101.82 60.34 79.32"/><polygon class="cls-1" points="79.18 147.9 106.89 105.4 129.09 60.48 101.67 102.54 79.18 147.9"/><path class="cls-2" d="M218.3,319a1.5,1.5,0,0,1-1.5-1.5v-5.66a1.5,1.5,0,0,1,1.5-1.5h16.89c1.38,0,1.84-.3,1.94-.39a1.76,1.76,0,0,0,.35-1.3c0-.47-.06-1.08-.38-1.32a3.78,3.78,0,0,0-2.24-.43H228a16.24,16.24,0,0,1-5.45-.77,9.36,9.36,0,0,1-3.64-2.25,8.05,8.05,0,0,1-1.92-3.35,13,13,0,0,1-.5-3.6,10,10,0,0,1,2.62-7.23c1.75-1.82,4.56-2.74,8.34-2.74h16.12a1.5,1.5,0,0,1,1.5,1.5v5.61a1.5,1.5,0,0,1-1.5,1.5H227.49c-1.3,0-1.76.3-1.89.42a1.86,1.86,0,0,0-.41,1.38,1.66,1.66,0,0,0,.38,1.24s.44.4,2.25.4h6.82a17.29,17.29,0,0,1,5.45.74,9.49,9.49,0,0,1,3.65,2.1,7.5,7.5,0,0,1,2,3.23,12.92,12.92,0,0,1,.5,3.62,13.27,13.27,0,0,1-.59,4,8.3,8.3,0,0,1-2.05,3.38,9.41,9.41,0,0,1-3.52,2.16,14.2,14.2,0,0,1-4.85.75Z" transform="translate(-103.17 -184.33)"/><path class="cls-3" d="M243.55,288.49v5.61H227.49a4.21,4.21,0,0,0-2.92.83,3.21,3.21,0,0,0-.88,2.47,3.08,3.08,0,0,0,.85,2.34,4.93,4.93,0,0,0,3.28.8h6.82a15.77,15.77,0,0,1,5,.66,7.85,7.85,0,0,1,3.08,1.76,5.77,5.77,0,0,1,1.57,2.58,11.33,11.33,0,0,1,.44,3.19,11.45,11.45,0,0,1-.52,3.55,6.86,6.86,0,0,1-1.68,2.78,8,8,0,0,1-3,1.81,12.74,12.74,0,0,1-4.34.66H218.3v-5.66h16.89a4.5,4.5,0,0,0,2.91-.75,3.79,3.79,0,0,0-.08-4.95,5.28,5.28,0,0,0-3.16-.74H228a14.88,14.88,0,0,1-4.95-.69,7.61,7.61,0,0,1-3.05-1.87,6.38,6.38,0,0,1-1.57-2.72A11.65,11.65,0,0,1,218,297a8.55,8.55,0,0,1,2.2-6.19q2.21-2.28,7.26-2.28h16.12m0-3H227.43c-4.2,0-7.37,1.08-9.42,3.2a11.47,11.47,0,0,0-3,8.27,14.56,14.56,0,0,0,.56,4,9.39,9.39,0,0,0,2.28,4,10.8,10.8,0,0,0,4.21,2.62,17.67,17.67,0,0,0,6,.86h6.88a6.15,6.15,0,0,1,1.12.09v.3a6.48,6.48,0,0,1-.79.05H218.3a3,3,0,0,0-3,3v5.66a3,3,0,0,0,3,3h16.89a15.73,15.73,0,0,0,5.37-.84,11,11,0,0,0,4.06-2.51,9.79,9.79,0,0,0,2.41-4,15.06,15.06,0,0,0,.11-8.51,8.9,8.9,0,0,0-2.35-3.88,11,11,0,0,0-4.22-2.46,18.51,18.51,0,0,0-5.93-.81h-6.82a6.65,6.65,0,0,1-1.13-.08v-.06c0-.1,0-.18,0-.24a4.31,4.31,0,0,1,.79-.06h16.06a3,3,0,0,0,3-3v-5.61a3,3,0,0,0-3-3Z" transform="translate(-103.17 -184.33)"/><path class="cls-2" d="M269.18,319a1.5,1.5,0,0,1-1.5-1.5v-29a1.5,1.5,0,0,1,1.5-1.5H275a1.5,1.5,0,0,1,1.5,1.5v29A1.5,1.5,0,0,1,275,319Zm0-33.22a1.5,1.5,0,0,1-1.5-1.5v-6.76a1.5,1.5,0,0,1,1.5-1.5h5.88a1.5,1.5,0,0,1,1.5,1.5v6.76a1.5,1.5,0,0,1-1.5,1.5Z" transform="translate(-103.17 -184.33)"/><path class="cls-3" d="M275.06,277.55v6.76h-5.88v-6.76h5.88M275,288.49v29h-5.83v-29H275m.05-13.94h-5.88a3,3,0,0,0-3,3v6.76a3,3,0,0,0,.84,2.09,3,3,0,0,0-.84,2.09v29a3,3,0,0,0,3,3H275a3,3,0,0,0,3-3v-29a3,3,0,0,0-.82-2.06,3,3,0,0,0,.87-2.12v-6.76a3,3,0,0,0-3-3Z" transform="translate(-103.17 -184.33)"/><path class="cls-2" d="M300.91,319a1.5,1.5,0,0,1-1.5-1.5V297c0-3.34.71-5.77,2.16-7.42s3.91-2.55,7.21-2.55h11.93a1.5,1.5,0,0,1,1.5,1.5v5.61a1.5,1.5,0,0,1-1.5,1.5H310.48c-1.67,0-2.24.57-2.24,2.24v19.69a1.5,1.5,0,0,1-1.5,1.5Z" transform="translate(-103.17 -184.33)"/><path class="cls-3" d="M320.71,288.49v5.61H310.48q-3.74,0-3.74,3.74v19.69h-5.83V297c0-2.93.6-5.08,1.79-6.43s3.22-2,6.08-2h11.93m0-3H308.78c-3.75,0-6.56,1-8.34,3.06s-2.53,4.69-2.53,8.41v20.57a3,3,0,0,0,3,3h5.83a3,3,0,0,0,3-3V297.84a2.46,2.46,0,0,1,.07-.67,3,3,0,0,1,.67-.07h10.23a3,3,0,0,0,3-3v-5.61a3,3,0,0,0-3-3Z" transform="translate(-103.17 -184.33)"/><path class="cls-2" d="M344,319a1.5,1.5,0,0,1-1.5-1.5v-29A1.5,1.5,0,0,1,344,287h5.83a1.5,1.5,0,0,1,1.5,1.5v29a1.5,1.5,0,0,1-1.5,1.5Zm0-33.22a1.5,1.5,0,0,1-1.5-1.5v-6.76a1.5,1.5,0,0,1,1.5-1.5h5.89a1.5,1.5,0,0,1,1.5,1.5v6.76a1.5,1.5,0,0,1-1.5,1.5Z" transform="translate(-103.17 -184.33)"/><path class="cls-3" d="M349.92,277.55v6.76H344v-6.76h5.89m-.06,10.94v29H344v-29h5.83m.06-13.94H344a3,3,0,0,0-3,3v6.76a3,3,0,0,0,.85,2.09,3,3,0,0,0-.85,2.09v29a3,3,0,0,0,3,3h5.83a3,3,0,0,0,3-3v-29a3,3,0,0,0-.82-2.06,3,3,0,0,0,.88-2.12v-6.76a3,3,0,0,0-3-3Z" transform="translate(-103.17 -184.33)"/><path class="cls-2" d="M388.25,319a17.68,17.68,0,0,1-6-.94,12.81,12.81,0,0,1-4.45-2.69,11.16,11.16,0,0,1-2.76-4.15,14.52,14.52,0,0,1-.89-5.16v-17.6a1.5,1.5,0,0,1,1.5-1.5h5.88a1.5,1.5,0,0,1,1.5,1.5v17.38a4.14,4.14,0,0,0,1.36,3.19,6.15,6.15,0,0,0,4.29,1.31h4.73a6,6,0,0,0,4.25-1.3,4.16,4.16,0,0,0,1.35-3.2V288.49a1.5,1.5,0,0,1,1.5-1.5h5.72a1.5,1.5,0,0,1,1.5,1.5v17.6a14.56,14.56,0,0,1-.9,5.16,11.24,11.24,0,0,1-2.76,4.15,12.81,12.81,0,0,1-4.45,2.69,17.68,17.68,0,0,1-6,.94Z" transform="translate(-103.17 -184.33)"/><path class="cls-3" d="M406.24,288.49v17.6a12.87,12.87,0,0,1-.8,4.62,9.51,9.51,0,0,1-2.39,3.6,11.3,11.3,0,0,1-3.94,2.37,15.91,15.91,0,0,1-5.47.85h-5.39a15.91,15.91,0,0,1-5.47-.85,11.16,11.16,0,0,1-3.93-2.37,9.42,9.42,0,0,1-2.4-3.6,12.87,12.87,0,0,1-.79-4.62v-17.6h5.88v17.38a5.57,5.57,0,0,0,1.84,4.29,7.53,7.53,0,0,0,5.31,1.71h4.73a7.42,7.42,0,0,0,5.28-1.71,5.62,5.62,0,0,0,1.82-4.29V288.49h5.72m0-3h-5.72a3,3,0,0,0-3,3v17.38a2.66,2.66,0,0,1-.87,2.1,4.65,4.65,0,0,1-3.23.9h-4.73a4.79,4.79,0,0,1-3.27-.91,2.58,2.58,0,0,1-.88-2.09V288.49a3,3,0,0,0-3-3h-5.88a3,3,0,0,0-3,3v17.6a15.89,15.89,0,0,0,1,5.69,12.56,12.56,0,0,0,3.13,4.71,14.27,14.27,0,0,0,5,3,19.15,19.15,0,0,0,6.5,1h5.39a19.15,19.15,0,0,0,6.5-1,14.27,14.27,0,0,0,5-3,12.56,12.56,0,0,0,3.13-4.71,15.93,15.93,0,0,0,1-5.69v-17.6a3,3,0,0,0-3-3Z" transform="translate(-103.17 -184.33)"/><path class="cls-2" d="M431,319a1.5,1.5,0,0,1-1.5-1.5v-5.66a1.5,1.5,0,0,1,1.5-1.5h16.89a3.17,3.17,0,0,0,1.95-.39,2.53,2.53,0,0,0,0-2.62,3.86,3.86,0,0,0-2.25-.43h-6.87a16.3,16.3,0,0,1-5.46-.77,9.32,9.32,0,0,1-3.63-2.25,8,8,0,0,1-1.93-3.35,13,13,0,0,1-.5-3.6,10.07,10.07,0,0,1,2.62-7.23c1.76-1.82,4.56-2.74,8.34-2.74h16.12a1.5,1.5,0,0,1,1.5,1.5v5.61a1.5,1.5,0,0,1-1.5,1.5H440.17c-1.3,0-1.75.29-1.89.42a1.87,1.87,0,0,0-.4,1.38,1.66,1.66,0,0,0,.37,1.24s.44.4,2.25.4h6.82a17,17,0,0,1,5.46.74,9.45,9.45,0,0,1,3.64,2.1,7.31,7.31,0,0,1,2,3.23,12.57,12.57,0,0,1,.5,3.62,13.27,13.27,0,0,1-.59,4,8.39,8.39,0,0,1-2,3.38,9.57,9.57,0,0,1-3.52,2.16,14.26,14.26,0,0,1-4.86.75Z" transform="translate(-103.17 -184.33)"/><path class="cls-3" d="M456.23,288.49v5.61H440.17a4.21,4.21,0,0,0-2.92.83,3.24,3.24,0,0,0-.87,2.47,3,3,0,0,0,.85,2.34,4.9,4.9,0,0,0,3.27.8h6.82a15.8,15.8,0,0,1,5,.66,8,8,0,0,1,3.08,1.76,5.84,5.84,0,0,1,1.56,2.58,11,11,0,0,1,.44,3.19,11.45,11.45,0,0,1-.52,3.55,6.75,6.75,0,0,1-1.68,2.78,7.9,7.9,0,0,1-3,1.81,12.7,12.7,0,0,1-4.34.66H431v-5.66h16.89a4.46,4.46,0,0,0,2.91-.75,3.76,3.76,0,0,0-.08-4.95,5.26,5.26,0,0,0-3.16-.74h-6.87a15,15,0,0,1-5-.69,7.61,7.61,0,0,1-3-1.87,6.48,6.48,0,0,1-1.57-2.72,11.65,11.65,0,0,1-.44-3.19,8.59,8.59,0,0,1,2.2-6.19q2.2-2.28,7.26-2.28h16.12m0-3H440.11c-4.2,0-7.37,1.08-9.42,3.2a11.52,11.52,0,0,0-3,8.27,14.56,14.56,0,0,0,.56,4,9.5,9.5,0,0,0,2.28,4,10.76,10.76,0,0,0,4.22,2.62,17.67,17.67,0,0,0,6,.86h6.87a6.06,6.06,0,0,1,1.12.09c0,.05,0,.1,0,.16s0,.09,0,.14a6.33,6.33,0,0,1-.79.05H431a3,3,0,0,0-3,3v5.66a3,3,0,0,0,3,3h16.89a15.69,15.69,0,0,0,5.37-.84,11,11,0,0,0,4.07-2.51,10,10,0,0,0,2.41-4,14.68,14.68,0,0,0,.66-4.47,14,14,0,0,0-.56-4,8.9,8.9,0,0,0-2.35-3.88,11,11,0,0,0-4.21-2.46,18.57,18.57,0,0,0-5.94-.81H440.5a6.42,6.42,0,0,1-1.12-.08v-.06a1.63,1.63,0,0,1,0-.24,4.18,4.18,0,0,1,.78-.06h16.06a3,3,0,0,0,3-3v-5.61a3,3,0,0,0-3-3Z" transform="translate(-103.17 -184.33)"/></svg>